# xmcd CD database file
#
# Track frame offsets:
#	182
#	12162
#	34422
#	49772
#	57985
#	72545
#	93502
#	111272
#	120752
#	135185
#	148780
#
# Disc length: 2173 seconds
#
# Revision: 6
# Processed by: cddbd v1.5.2PL0 Copyright (c) Steve Scherf et al.
# Submitted via: CDex 1.40Release
#
DISCID=97087b0b
DTITLE=Tracy Chapman - First
DYEAR=1988
DGENRE=Rock
TTITLE0=Talkin' Bout A Revolution
TTITLE1=Fast Car
TTITLE2=Across The Lines
TTITLE3=Behind The Wall
TTITLE4=Baby Can I Hold You
TTITLE5=Mountains O' Things
TTITLE6=She's Got Her Ticket
TTITLE7=Why?
TTITLE8=For My Lover
TTITLE9=If Not Now...
TTITLE10=For You
EXTD=YEAR: 1988 ID3G: 17
EXTT0=
EXTT1=
EXTT2=
EXTT3=
EXTT4=
EXTT5=
EXTT6=
EXTT7=
EXTT8=
EXTT9=
EXTT10=
PLAYORDER=
